<svg width="206" height="30" viewBox="0 0 206 30" fill="none" xmlns="http://www.w3.org/2000/svg">
<g id="Maastricht logo" clip-path="url(#clip0_72_121)">
<g id="Group">
<path id="Vector" d="M47.1373 21.6598L46.2686 15.844C46.0834 14.7011 45.9687 13.7868 45.8717 12.9428H45.8276C45.6689 13.7164 45.4616 14.5868 45.1662 15.5231L43.2391 21.6378H40.8932L39.0412 15.9847C38.7149 15 38.3929 13.9011 38.2562 12.9164H38.2122C38.1416 13.9934 38.0005 14.9517 37.8594 16.0067L37.1759 21.607H34.7947L36.6688 9.43045H39.4248L41.4665 15.6814C41.7663 16.5518 41.9736 17.3738 42.1279 18.2442H42.1808C42.3572 17.2991 42.5689 16.6177 42.8687 15.7209L44.9589 9.43485H47.6929L49.589 21.6026H47.1373V21.6466V21.6598ZM56.3226 21.6598C56.3226 21.1323 56.3446 20.6048 56.4108 20.1476L56.3931 20.13C55.9522 21.1411 54.8497 21.8444 53.5268 21.8444C51.8953 21.8444 50.9516 20.9301 50.9516 19.4882C50.9516 17.3342 53.0815 16.2177 56.133 16.2177V15.7341C56.133 14.7978 55.6743 14.3143 54.3911 14.3143C53.5842 14.3143 52.4862 14.5912 51.7277 15.0264L51.5205 13.1054C52.4112 12.7845 53.5798 12.5559 54.7307 12.5559C57.6234 12.5559 58.426 13.7208 58.426 15.6682V19.4047C58.426 20.1344 58.448 20.9784 58.4701 21.7125H56.3093V21.6686L56.3226 21.6598ZM56.1374 17.7035C53.7032 17.7035 53.152 18.4068 53.152 19.119C53.152 19.6904 53.5489 20.086 54.2103 20.086C55.3569 20.086 56.1374 19.0047 56.1374 17.9057V17.7035ZM65.7107 21.6598C65.7107 21.1323 65.7328 20.6048 65.7989 20.1476L65.7768 20.13C65.3491 21.1411 64.2467 21.8444 62.9106 21.8444C61.279 21.8444 60.3442 20.9301 60.3442 19.4882C60.3442 17.3342 62.4784 16.2177 65.5299 16.2177V15.7341C65.5299 14.7978 65.0713 14.3143 63.7881 14.3143C62.9767 14.3143 61.8787 14.5912 61.1203 15.0264L60.913 13.1054C61.8082 12.7845 62.9767 12.5559 64.132 12.5559C67.0204 12.5559 67.8229 13.7208 67.8229 15.6682V19.4047C67.8229 20.1344 67.845 20.9784 67.867 21.7125H65.7063V21.6686L65.7107 21.6598ZM65.5255 17.7035C63.1002 17.7035 62.5446 18.4068 62.5446 19.119C62.5446 19.6904 62.9326 20.086 63.6029 20.086C64.7494 20.086 65.499 19.0047 65.499 17.9057V17.7035H65.5255ZM71.9327 21.84C71.2889 21.84 70.623 21.7741 70.0498 21.6817L70.0939 19.7827C70.6451 19.9146 71.3286 20.0553 72.0209 20.0553C72.9161 20.0553 73.4937 19.6904 73.4937 19.097C73.4937 17.5145 69.869 18.4068 69.869 15.3605C69.869 13.7868 71.1566 12.5032 73.6789 12.5032C74.2081 12.5032 74.7813 12.5735 75.3325 12.6658L75.262 14.4901C74.7637 14.3582 74.1684 14.2615 73.6172 14.2615C72.722 14.2615 72.2855 14.6264 72.2855 15.1759C72.2855 16.6485 75.9808 15.9847 75.9808 18.8904C75.9587 20.6487 74.3933 21.8356 71.9415 21.8356M80.9989 21.84C79.0014 21.84 78.4061 21.1103 78.4061 19.0266V14.4989H76.8451V12.7098H78.3884V9.94037L80.7035 9.32495V12.6834H82.8863V14.4681H80.7035V18.4024C80.7035 19.5454 80.9813 19.897 81.7618 19.897C82.1499 19.897 82.5644 19.8443 82.8863 19.7564V21.6026C82.313 21.7477 81.6516 21.8356 81.0034 21.8356M89.6551 14.7934C88.0015 14.4505 87.1504 15.5275 87.1504 18.02V21.6817H84.8309V12.7318H87.0137C87.0137 13.1933 86.9696 13.9011 86.855 14.5429H86.899C87.34 13.3999 88.2131 12.4152 89.7477 12.5515L89.6595 14.7934H89.6551ZM92.4949 11.5712C92.1198 11.5712 91.76 11.4233 91.494 11.1598C91.2279 10.8962 91.0773 10.5384 91.075 10.1646C91.075 9.41726 91.7188 8.77547 92.4993 8.77547C93.2798 8.77547 93.9545 9.39089 93.9545 10.169C93.9545 10.9294 93.2842 11.5756 92.4993 11.5756M91.3352 12.7186H93.6502V21.6642H91.3396V12.7142L91.3352 12.7186ZM99.6385 21.84C97.1382 21.84 95.5993 20.5388 95.5993 17.4881C95.5993 14.7011 97.0677 12.5515 100.238 12.5515C100.856 12.5515 101.499 12.6394 102.073 12.8021L101.843 14.7934C101.358 14.6088 100.785 14.4725 100.212 14.4725C98.7434 14.4725 98.0069 15.5451 98.0069 17.2419C98.0069 18.7805 98.6067 19.8267 100.146 19.8267C100.763 19.8267 101.424 19.6948 101.909 19.4399L102.095 21.4048C101.477 21.6598 100.582 21.8444 99.6385 21.8444M109.485 21.6598V15.9363C109.485 15 109.234 14.4505 108.383 14.4505C107.214 14.4505 106.297 15.7781 106.297 17.3518V21.6817H103.978V8.5249H106.297V12.3669C106.297 12.9208 106.253 13.6769 106.134 14.2044L106.178 14.2263C106.707 13.2153 107.743 12.5559 109.119 12.5559C111.139 12.5559 111.809 13.8615 111.809 15.4132V21.7081H109.485V21.6642V21.6598ZM117.29 21.84C115.297 21.84 114.697 21.1103 114.697 19.0266V14.4989H113.136V12.7098H114.68V9.94037L116.999 9.32495V12.6834H119.178V14.4681H116.999V18.4024C116.999 19.5454 117.273 19.897 118.058 19.897C118.446 19.897 118.851 19.8443 119.178 19.7564V21.6026C118.604 21.7477 117.943 21.8356 117.295 21.8356M130.215 21.8664C126.361 21.8664 125.488 19.7827 125.488 17.4485V9.50518H127.851V17.3123C127.851 18.842 128.354 19.919 130.378 19.919C132.195 19.919 132.953 19.1585 132.953 17.0749V9.4832H135.29V16.921C135.29 20.2839 133.456 21.8664 130.219 21.8664M143.118 21.6598V15.9363C143.118 15 142.866 14.4505 142.015 14.4505C140.847 14.4505 139.925 15.7781 139.925 17.3518V21.6817H137.61V12.7318H139.793C139.793 13.145 139.749 13.8527 139.678 14.3143L139.696 14.3362C140.247 13.2812 141.283 12.5251 142.752 12.5251C144.771 12.5251 145.442 13.8263 145.442 15.3825V21.6817H143.118V21.6598ZM149.018 11.5712C148.215 11.5712 147.593 10.925 147.593 10.1646C147.593 9.41726 148.237 8.77547 149.018 8.77547C149.82 8.77547 150.464 9.39089 150.464 10.169C150.464 10.9294 149.82 11.5756 149.018 11.5756M147.871 12.7186H150.186V21.6642H147.867V12.7142L147.871 12.7186ZM157.374 21.6598H155.037L151.703 12.7098H154.23L155.65 16.732C155.857 17.3474 156.091 18.0595 156.25 18.7233H156.294C156.426 18.1079 156.616 17.4221 156.845 16.8243L158.291 12.7054H160.752L157.378 21.651L157.374 21.6598ZM169.355 17.5628H163.777C163.755 19.2332 164.579 20.0553 166.255 20.0553C167.15 20.0553 168.094 19.8487 168.874 19.5058L169.086 21.2949C168.116 21.6817 166.996 21.8664 165.867 21.8664C163.023 21.8664 161.413 20.4465 161.413 17.2859C161.413 14.5429 162.93 12.5295 165.647 12.5295C168.257 12.5295 169.43 14.3143 169.43 16.5298C169.43 16.8287 169.404 17.1716 169.359 17.5628M165.567 14.2C164.606 14.2 163.944 14.9033 163.825 15.9847H167.133C167.177 14.8637 166.559 14.2 165.572 14.2M176.146 14.7934C174.497 14.4505 173.65 15.5275 173.65 18.02V21.6817H171.331V12.7318H173.509C173.509 13.1933 173.465 13.9011 173.35 14.5429H173.394C173.835 13.3999 174.704 12.4152 176.243 12.5515L176.155 14.7934H176.146ZM179.343 21.84C178.699 21.84 178.033 21.7741 177.46 21.6817L177.504 19.7827C178.055 19.9146 178.739 20.0553 179.431 20.0553C180.326 20.0553 180.899 19.6904 180.899 19.097C180.899 17.5145 177.275 18.4068 177.275 15.3605C177.275 13.7868 178.562 12.5032 181.085 12.5032C181.614 12.5032 182.187 12.5735 182.738 12.6658L182.668 14.4901C182.161 14.3582 181.565 14.2615 181.014 14.2615C180.119 14.2615 179.682 14.6264 179.682 15.1759C179.682 16.6485 183.378 15.9847 183.378 18.8904C183.356 20.6487 181.799 21.8356 179.343 21.8356M186.412 11.5712C185.609 11.5712 184.987 10.925 184.987 10.1646C184.987 9.41726 185.631 8.77547 186.412 8.77547C187.214 8.77547 187.858 9.39089 187.858 10.169C187.858 10.9294 187.214 11.5756 186.412 11.5756M185.265 12.7186H187.584V21.6642H185.265V12.7142V12.7186ZM193.551 21.84C191.553 21.84 190.958 21.1103 190.958 19.0266V14.4989H189.392V12.7098H190.927V9.94037L193.246 9.32495V12.6834H195.425V14.4681H193.242V18.4024C193.242 19.5454 193.515 19.897 194.3 19.897C194.684 19.897 195.094 19.8443 195.42 19.7564V21.6026C194.847 21.7477 194.186 21.8356 193.538 21.8356M201.607 22.5038C200.549 25.2952 199.61 26.1436 197.55 26.1436C197.153 26.1436 196.651 26.0996 196.28 26.0117L196.421 24.016C196.832 24.1566 197.224 24.227 197.656 24.227C198.419 24.227 198.922 23.8841 199.402 22.5565L199.702 21.6861L196.395 12.7361H198.97L200.183 16.1649C200.465 16.9474 200.694 17.8178 200.902 18.6442H200.924C201.131 17.8398 201.497 16.6529 201.797 15.8045L202.855 12.7625H205.333L201.612 22.5082L201.607 22.5038Z" fill="white"/>
</g>
<path id="Vector_2" d="M1.85464 3.09619V14.6354L16.5167 9.43943L1.85464 3.09619ZM21.751 28.3725L5.71308 21.66L21.751 13.6463" fill="black"/>
<path id="Vector_3" d="M0.333313 0.0102539V17.7916L18.7215 9.46138L0.333313 0.0102539ZM5.72631 12.389C4.18293 12.389 3.08934 11.7033 3.08934 9.9713C3.08934 8.52066 3.11139 7.3118 3.13344 6.12052H4.74296C4.7165 7.35136 4.7165 8.59099 4.7165 9.84821C4.7165 10.7713 5.06045 11.1318 5.75277 11.1318C6.25106 11.1318 6.80226 10.9032 6.80226 9.82623L6.82431 6.14249H8.43383L8.40737 10.0109C8.38533 11.567 7.30496 12.3846 5.71749 12.3846M4.23585 21.6599L22.6241 29.9901V12.2088L4.23585 21.6599ZM19.7754 24.1744L19.1052 19.8049H19.0831L18.0028 24.1744H16.1683L15.1541 19.8049H15.1365L14.2413 24.1744H12.6803L14.1531 18.0641H16.1507L17.0459 22.5303H17.0679L18.1703 18.0641H20.1679L21.385 24.1744H19.7798H19.7754Z" fill="white"/>
</g>
<defs>
<clipPath id="clip0_72_121">
<rect width="205" height="30" fill="white" transform="translate(0.333313)"/>
</clipPath>
</defs>
</svg>
