<svg width="139" height="38" viewBox="0 0 139 38" fill="none" xmlns="http://www.w3.org/2000/svg">
<g id="Uni_Passau-Logo logo">
<g id="layer1">
<g id="g3049">
<path id="path2922" d="M59.2933 25.4282H60.2141C61.6417 25.4282 62.2321 26.196 62.2321 27.2507C62.2321 28.6757 61.4222 29.3599 60.1304 29.4299L59.6915 29.4435V30.3197H60.1191C62.2729 30.3197 63.6597 28.8541 63.6597 27.2371C63.6597 25.374 62.4109 24.4684 60.3793 24.4684H57.963V34.0617H59.2933V25.4282Z" fill="#8A8A8C"/>
<path id="path2924" fill-rule="evenodd" clip-rule="evenodd" d="M67.0781 24.4684L63.1642 34.0617H64.456L65.4854 31.2388H69.1504L70.1391 34.0617H71.6775L68.0939 24.4684H67.0781ZM65.8564 30.2791C66.379 28.9512 66.8858 27.621 67.379 25.8934H67.4084C67.888 27.621 68.3541 28.9512 68.836 30.2791H65.8564Z" fill="#8A8A8C"/>
<path id="path2926" d="M77.9104 25.2634C77.3764 24.6604 76.5371 24.3058 75.5371 24.3058C74.0394 24.3058 72.7906 25.2769 72.7906 26.5664C72.7906 27.9236 73.682 28.5108 74.4783 29.1296C75.2611 29.7032 76.7023 30.4846 76.7023 31.6905C76.7023 32.7609 75.976 33.2668 75.0281 33.2668C74.1232 33.2668 73.5055 32.8287 72.9422 32.4312L72.3517 33.2261C73.0372 33.8968 74.1367 34.2266 75.0552 34.2266C76.5937 34.2266 78.0348 33.2397 78.0348 31.7176C78.0348 30.4846 77.2656 29.6083 75.9489 28.6486C74.7136 27.7588 74.1232 27.2507 74.1232 26.5664C74.1232 25.8257 74.6571 25.2634 75.6186 25.2634C76.1955 25.2634 76.8131 25.6066 77.2792 25.9499L77.9104 25.2634Z" fill="#8A8A8C"/>
<path id="path2928" d="M85.0481 25.2634C84.5142 24.6604 83.6749 24.3058 82.6727 24.3058C81.1772 24.3058 79.9284 25.2769 79.9284 26.5664C79.9284 27.9236 80.8198 28.5108 81.6161 29.1296C82.3989 29.7032 83.84 30.4846 83.84 31.6905C83.84 32.7609 83.1138 33.2668 82.1659 33.2668C81.2587 33.2668 80.6411 32.8287 80.0777 32.4312L79.4895 33.2261C80.175 33.8968 81.2745 34.2266 82.193 34.2266C83.7314 34.2266 85.1726 33.2397 85.1726 31.7176C85.1726 30.4846 84.4034 29.6083 83.0867 28.6486C81.8492 27.7588 81.2587 27.2507 81.2587 26.5664C81.2587 25.8257 81.7949 25.2634 82.7564 25.2634C83.3333 25.2634 83.9509 25.6066 84.4169 25.9499L85.0481 25.2634Z" fill="#8A8A8C"/>
<path id="path2930" fill-rule="evenodd" clip-rule="evenodd" d="M89.7561 24.4684L85.8445 34.0617H87.134L88.1634 31.2388H91.8307L92.8171 34.0617H94.3555L90.7719 24.4684H89.7561ZM88.5344 30.2791C89.0571 28.9512 89.5638 27.621 90.0593 25.8934H90.0864C90.5661 27.621 91.0321 28.9512 91.514 30.2791H88.5344Z" fill="#8A8A8C"/>
<path id="path2932" d="M95.317 24.4684V30.3355C95.317 32.8016 96.403 34.2266 99.1065 34.2266C101.428 34.2266 102.758 32.6909 102.758 30.5388V24.4684H101.509V30.5117C101.509 31.8824 100.905 33.3074 99.1065 33.3074C97.3916 33.3074 96.6496 32.2664 96.6496 30.2791V24.4684H95.317Z" fill="#8A8A8C"/>
<path id="path2934" d="M57.825 11.7294V17.5942C57.825 20.0602 58.9087 21.4875 61.6145 21.4875C63.9334 21.4875 65.266 19.9518 65.266 17.7997V11.7294H64.0171V17.7726C64.0171 19.1434 63.4131 20.5684 61.6145 20.5684C59.8996 20.5684 59.1576 19.5273 59.1576 17.54V11.7294H57.825Z" fill="#8A8A8C"/>
<path id="path2936" d="M75.8539 11.7294H74.7566V19.376H74.7272C74.0824 18.4162 70.5418 14.2225 68.4265 11.7294H67.4378V21.3226H68.5351V13.6896H68.5645C69.1414 14.5251 72.7227 18.8272 74.8109 21.3226H75.8539V11.7294Z" fill="#8A8A8C"/>
<path id="path2938" d="M78.1615 21.3226H79.494V11.7294H78.1615V21.3226Z" fill="#8A8A8C"/>
<path id="path2940" d="M85.0255 21.3226L88.8557 11.7565L87.6612 11.5916C86.6861 14.209 85.6974 16.8399 84.7359 19.787H84.7088C83.7903 16.8399 82.8695 14.209 81.9351 11.5916L80.5777 11.8378L84.1341 21.3226H85.0255Z" fill="#8A8A8C"/>
<path id="path2942" d="M94.6768 11.7294H89.9394V21.3226H95.2672V20.3629H91.2719V16.7451H94.6089V15.7853H91.2719V12.6869H94.6768V11.7294Z" fill="#8A8A8C"/>
<path id="path2944" fill-rule="evenodd" clip-rule="evenodd" d="M98.0952 12.6869H99.2355C100.127 12.6869 100.867 13.1408 100.867 14.3196C100.867 15.1281 100.552 16.3882 98.8509 16.3882H98.0952V12.6869ZM96.7627 21.3226H98.0952V17.348H99.5092L101.733 21.4852L103.079 21.0742L100.69 16.9912C101.609 16.4018 102.296 15.6069 102.296 14.1954C102.296 12.5378 101.075 11.7294 99.5092 11.7294H96.7627V21.3226Z" fill="#8A8A8C"/>
<path id="path2946" d="M109.531 12.5243C108.995 11.9213 108.158 11.5645 107.156 11.5645C105.658 11.5645 104.409 12.5378 104.409 13.8251C104.409 15.1823 105.303 15.7717 106.099 16.3882C106.882 16.9641 108.323 17.7455 108.323 18.9514C108.323 20.0196 107.595 20.5277 106.649 20.5277C105.742 20.5277 105.124 20.0873 104.561 19.6899L103.971 20.4848C104.658 21.1578 105.756 21.4875 106.676 21.4875C108.215 21.4875 109.656 20.5006 109.656 18.9785C109.656 17.7455 108.887 16.8693 107.568 15.9095C106.332 15.0175 105.742 14.5116 105.742 13.8251C105.742 13.0844 106.278 12.5243 107.237 12.5243C107.817 12.5243 108.434 12.8676 108.9 13.2086L109.531 12.5243Z" fill="#8A8A8C"/>
<path id="path2948" d="M111.536 21.3226H112.866V11.7294H111.536V21.3226Z" fill="#8A8A8C"/>
<path id="path2950" d="M118.493 21.3226V12.6869H121.583V11.7294H114.088V12.6869H117.162V21.3226H118.493Z" fill="#8A8A8C"/>
<path id="path2952" fill-rule="evenodd" clip-rule="evenodd" d="M124.465 8.90649C124.124 8.90649 123.78 9.26331 123.78 9.60431C123.78 9.97467 124.11 10.3179 124.465 10.3179C124.85 10.3179 125.167 9.98822 125.167 9.60431C125.167 9.23395 124.85 8.90649 124.465 8.90649ZM127.228 8.90649C126.884 8.90649 126.54 9.26331 126.54 9.60431C126.54 9.97467 126.87 10.3179 127.228 10.3179C127.61 10.3179 127.927 9.98822 127.927 9.60431C127.927 9.23395 127.61 8.90649 127.228 8.90649ZM125.511 11.7294L121.599 21.3226H122.889L123.918 18.4975H127.583L128.572 21.3226H130.11L126.526 11.7294H125.511ZM124.289 17.54C124.809 16.2098 125.318 14.8797 125.812 13.1544H125.839C126.321 14.8797 126.787 16.2098 127.266 17.54H124.289Z" fill="#8A8A8C"/>
<path id="path2954" d="M134.531 21.3226V12.6869H137.621V11.7294H130.124V12.6869H133.2V21.3226H134.531Z" fill="#8A8A8C"/>
<path id="path2956" d="M25.9618 16.8399L25.9596 1.12891L39.2623 5.95038V11.8039H40.5632V5.9165L53.7844 1.10858V34.0256L52.4519 32.6954V3.00781L41.8957 6.84692V15.6543H37.9298V6.8808L27.2921 3.02588L27.2944 16.7292L25.9618 16.8399Z" fill="#8A8A8C"/>
<path id="path2958" d="M45.9363 36.8914H53.3161C47.8412 31.8305 42.7961 24.622 51.0062 23.2693L50.099 22.9441C41.6151 24.0958 42.6287 30.5229 45.9363 36.8914Z" fill="#F8971C"/>
<path id="path2960" d="M12.0392 28.6215H19.6068C23.9166 22.174 31.8259 20.5797 41.7758 19.8999L40.8731 19.5724C28.7242 19.7192 16.7969 22.4721 12.0392 28.6215Z" fill="#F8971C"/>
<path id="path2962" d="M23.0909 31.3653H30.6947C31.7852 25.1075 36.8257 21.9821 44.8775 21.0336L43.9816 20.7106C33.4729 21.6298 24.9121 24.6627 23.0909 31.3653Z" fill="#F8971C"/>
<path id="path2964" d="M34.3552 34.0594L41.4998 34.1159C39.5813 28.4498 40.1242 23.0818 47.9339 22.1379L47.0199 21.8059C38.518 22.6144 33.9072 27.6052 34.3552 34.0594Z" fill="#F8971C"/>
<path id="path2966" d="M1.37891 25.8528C6.1412 21.8443 20.9032 18.3665 37.647 18.3665L38.6514 18.7482C22.5705 18.9221 15.1319 21.9482 8.94201 25.8912L1.37891 25.8528Z" fill="#F8971C"/>
</g>
</g>
</g>
</svg>
