<svg width="139" height="38" viewBox="0 0 139 38" fill="none" xmlns="http://www.w3.org/2000/svg">
<g id="Uni_Passau-Logo logo">
<g id="layer1">
<g id="g3049">
<path id="path2922" d="M59.2934 25.428H60.2142C61.6417 25.428 62.2322 26.1959 62.2322 27.2505C62.2322 28.6755 61.4223 29.3597 60.1305 29.4297L59.6916 29.4433V30.3195H60.1192C62.2729 30.3195 63.6598 28.8539 63.6598 27.2369C63.6598 25.3738 62.411 24.4683 60.3793 24.4683H57.9631V34.0615H59.2934V25.428Z" fill="black"/>
<path id="path2924" fill-rule="evenodd" clip-rule="evenodd" d="M67.0782 24.4683L63.1643 34.0615H64.4561L65.4855 31.2386H69.1505L70.1392 34.0615H71.6776L68.094 24.4683H67.0782ZM65.8565 30.2789C66.3791 28.951 66.8859 27.6208 67.3791 25.8932H67.4085C67.8881 27.6208 68.3542 28.951 68.8361 30.2789H65.8565Z" fill="black"/>
<path id="path2926" d="M77.9104 25.2632C77.3765 24.6602 76.5372 24.3057 75.5372 24.3057C74.0395 24.3057 72.7907 25.2767 72.7907 26.5662C72.7907 27.9235 73.6821 28.5106 74.4784 29.1294C75.2612 29.703 76.7023 30.4844 76.7023 31.6903C76.7023 32.7607 75.9761 33.2666 75.0282 33.2666C74.1232 33.2666 73.5056 32.8285 72.9423 32.431L72.3518 33.226C73.0373 33.8967 74.1368 34.2264 75.0553 34.2264C76.5937 34.2264 78.0349 33.2395 78.0349 31.7174C78.0349 30.4844 77.2657 29.6082 75.949 28.6484C74.7137 27.7586 74.1232 27.2505 74.1232 26.5662C74.1232 25.8255 74.6572 25.2632 75.6187 25.2632C76.1956 25.2632 76.8132 25.6064 77.2792 25.9497L77.9104 25.2632Z" fill="black"/>
<path id="path2928" d="M85.0481 25.2632C84.5142 24.6602 83.6749 24.3057 82.6727 24.3057C81.1772 24.3057 79.9284 25.2767 79.9284 26.5662C79.9284 27.9235 80.8198 28.5106 81.6161 29.1294C82.3989 29.703 83.84 30.4844 83.84 31.6903C83.84 32.7607 83.1138 33.2666 82.1659 33.2666C81.2587 33.2666 80.6411 32.8285 80.0777 32.431L79.4895 33.226C80.175 33.8967 81.2745 34.2264 82.193 34.2264C83.7314 34.2264 85.1726 33.2395 85.1726 31.7174C85.1726 30.4844 84.4034 29.6082 83.0867 28.6484C81.8492 27.7586 81.2587 27.2505 81.2587 26.5662C81.2587 25.8255 81.7949 25.2632 82.7564 25.2632C83.3333 25.2632 83.9509 25.6064 84.4169 25.9497L85.0481 25.2632Z" fill="black"/>
<path id="path2930" fill-rule="evenodd" clip-rule="evenodd" d="M89.7561 24.4683L85.8445 34.0615H87.134L88.1634 31.2386H91.8307L92.8171 34.0615H94.3555L90.7719 24.4683H89.7561ZM88.5344 30.2789C89.0571 28.951 89.5638 27.6208 90.0593 25.8932H90.0864C90.5661 27.6208 91.0321 28.951 91.514 30.2789H88.5344Z" fill="black"/>
<path id="path2932" d="M95.3171 24.4683V30.3353C95.3171 32.8014 96.4031 34.2264 99.1066 34.2264C101.428 34.2264 102.758 32.6907 102.758 30.5386V24.4683H101.509V30.5115C101.509 31.8823 100.905 33.3073 99.1066 33.3073C97.3917 33.3073 96.6497 32.2662 96.6497 30.2789V24.4683H95.3171Z" fill="black"/>
<path id="path2934" d="M57.825 11.729V17.5938C57.825 20.0599 58.9086 21.4871 61.6144 21.4871C63.9334 21.4871 65.2659 19.9515 65.2659 17.7993V11.729H64.0171V17.7722C64.0171 19.143 63.413 20.568 61.6144 20.568C59.8995 20.568 59.1575 19.5269 59.1575 17.5396V11.729H57.825Z" fill="black"/>
<path id="path2936" d="M75.8538 11.729H74.7565V19.3756H74.7271C74.0823 18.4158 70.5417 14.2222 68.4264 11.729H67.4377V21.3223H68.535V13.6892H68.5644C69.1413 14.5248 72.7226 18.8268 74.8108 21.3223H75.8538V11.729Z" fill="black"/>
<path id="path2938" d="M78.1614 21.3223H79.4939V11.729H78.1614V21.3223Z" fill="black"/>
<path id="path2940" d="M85.0255 21.3223L88.8556 11.7562L87.6611 11.5913C86.686 14.2087 85.6974 16.8396 84.7359 19.7867H84.7087C83.7902 16.8396 82.8694 14.2087 81.9351 11.5913L80.5776 11.8375L84.1341 21.3223H85.0255Z" fill="black"/>
<path id="path2942" d="M94.6769 11.729H89.9395V21.3223H95.2673V20.3625H91.272V16.7447H94.609V15.7849H91.272V12.6865H94.6769V11.729Z" fill="black"/>
<path id="path2944" fill-rule="evenodd" clip-rule="evenodd" d="M98.0952 12.6865H99.2355C100.127 12.6865 100.867 13.1404 100.867 14.3193C100.867 15.1277 100.552 16.3879 98.8509 16.3879H98.0952V12.6865ZM96.7627 21.3223H98.0952V17.3477H99.5092L101.733 21.4849L103.079 21.0739L100.69 16.9908C101.609 16.4014 102.296 15.6065 102.296 14.1951C102.296 12.5375 101.075 11.729 99.5092 11.729H96.7627V21.3223Z" fill="black"/>
<path id="path2946" d="M109.532 12.5242C108.995 11.9213 108.158 11.5645 107.156 11.5645C105.658 11.5645 104.41 12.5378 104.41 13.825C104.41 15.1823 105.303 15.7717 106.1 16.3882C106.882 16.9641 108.324 17.7454 108.324 18.9514C108.324 20.0195 107.595 20.5276 106.649 20.5276C105.742 20.5276 105.125 20.0873 104.561 19.6898L103.971 20.4847C104.658 21.1577 105.756 21.4874 106.676 21.4874C108.215 21.4874 109.656 20.5005 109.656 18.9785C109.656 17.7454 108.887 16.8692 107.568 15.9094C106.333 15.0174 105.742 14.5115 105.742 13.825C105.742 13.0843 106.278 12.5242 107.238 12.5242C107.817 12.5242 108.434 12.8675 108.9 13.2085L109.532 12.5242Z" fill="black"/>
<path id="path2948" d="M111.536 21.3223H112.866V11.729H111.536V21.3223Z" fill="black"/>
<path id="path2950" d="M118.493 21.3223V12.6865H121.583V11.729H114.088V12.6865H117.162V21.3223H118.493Z" fill="black"/>
<path id="path2952" fill-rule="evenodd" clip-rule="evenodd" d="M124.465 8.90625C124.124 8.90625 123.78 9.26306 123.78 9.60406C123.78 9.97443 124.11 10.3177 124.465 10.3177C124.85 10.3177 125.167 9.98798 125.167 9.60406C125.167 9.2337 124.85 8.90625 124.465 8.90625ZM127.228 8.90625C126.884 8.90625 126.54 9.26306 126.54 9.60406C126.54 9.97443 126.87 10.3177 127.228 10.3177C127.61 10.3177 127.927 9.98798 127.927 9.60406C127.927 9.2337 127.61 8.90625 127.228 8.90625ZM125.511 11.7291L121.599 21.3224H122.888L123.918 18.4973H127.583L128.572 21.3224H130.11L126.526 11.7291H125.511ZM124.289 17.5397C124.809 16.2096 125.318 14.8795 125.811 13.1541H125.839C126.32 14.8795 126.786 16.2096 127.266 17.5397H124.289Z" fill="black"/>
<path id="path2954" d="M134.531 21.3223V12.6865H137.621V11.729H130.124V12.6865H133.2V21.3223H134.531Z" fill="black"/>
<path id="path2956" d="M25.9617 16.8397L25.9595 1.12872L39.2622 5.9502V11.8037H40.5631V5.91632L53.7844 1.1084V34.0254L52.4518 32.6953V3.00763L41.8956 6.84674V15.6541H37.9297V6.88062L27.292 3.0257L27.2943 16.7291L25.9617 16.8397Z" fill="black"/>
<path id="path2958" d="M45.9362 36.8911H53.3161C47.8411 31.8303 42.796 24.6218 51.0062 23.269L50.099 22.9438C41.6151 24.0956 42.6286 30.5227 45.9362 36.8911Z" fill="black"/>
<path id="path2960" d="M12.0393 28.6213H19.6069C23.9167 22.1738 31.826 20.5795 41.7759 19.8997L40.8732 19.5723C28.7243 19.7191 16.7971 22.4719 12.0393 28.6213Z" fill="black"/>
<path id="path2962" d="M23.0908 31.3651H30.6946C31.7851 25.1074 36.8257 21.9819 44.8774 21.0334L43.9815 20.7104C33.4728 21.6296 24.912 24.6625 23.0908 31.3651Z" fill="black"/>
<path id="path2964" d="M34.3553 34.0592L41.4999 34.1157C39.5814 28.4496 40.1243 23.0816 47.934 22.1376L47.02 21.8057C38.518 22.6141 33.9073 27.605 34.3553 34.0592Z" fill="black"/>
<path id="path2966" d="M1.37891 25.8525C6.1412 21.844 20.9032 18.3662 37.647 18.3662L38.6514 18.7479C22.5705 18.9218 15.1319 21.9479 8.94201 25.8909L1.37891 25.8525Z" fill="black"/>
</g>
</g>
</g>
</svg>
