<svg width="139" height="38" viewBox="0 0 139 38" fill="none" xmlns="http://www.w3.org/2000/svg">
<g id="Uni_Passau-Logo logo">
<g id="layer1">
<g id="g3049">
<path id="path2922" d="M59.2933 25.428H60.2141C61.6417 25.428 62.2321 26.1959 62.2321 27.2505C62.2321 28.6755 61.4222 29.3597 60.1304 29.4297L59.6915 29.4433V30.3195H60.1191C62.2729 30.3195 63.6597 28.8539 63.6597 27.2369C63.6597 25.3738 62.4109 24.4683 60.3793 24.4683H57.963V34.0615H59.2933V25.428Z" fill="white"/>
<path id="path2924" fill-rule="evenodd" clip-rule="evenodd" d="M67.0781 24.4683L63.1642 34.0615H64.456L65.4854 31.2386H69.1504L70.1391 34.0615H71.6775L68.0939 24.4683H67.0781ZM65.8564 30.2789C66.379 28.951 66.8858 27.6208 67.379 25.8932H67.4084C67.888 27.6208 68.3541 28.951 68.836 30.2789H65.8564Z" fill="white"/>
<path id="path2926" d="M77.9104 25.2632C77.3764 24.6602 76.5371 24.3057 75.5371 24.3057C74.0394 24.3057 72.7906 25.2767 72.7906 26.5662C72.7906 27.9235 73.682 28.5106 74.4783 29.1294C75.2611 29.703 76.7023 30.4844 76.7023 31.6903C76.7023 32.7607 75.976 33.2666 75.0281 33.2666C74.1232 33.2666 73.5055 32.8285 72.9422 32.431L72.3517 33.226C73.0372 33.8967 74.1367 34.2264 75.0552 34.2264C76.5937 34.2264 78.0348 33.2395 78.0348 31.7174C78.0348 30.4844 77.2656 29.6082 75.9489 28.6484C74.7136 27.7586 74.1232 27.2505 74.1232 26.5662C74.1232 25.8255 74.6571 25.2632 75.6186 25.2632C76.1955 25.2632 76.8131 25.6064 77.2792 25.9497L77.9104 25.2632Z" fill="white"/>
<path id="path2928" d="M85.0481 25.2632C84.5142 24.6602 83.6749 24.3057 82.6727 24.3057C81.1772 24.3057 79.9284 25.2767 79.9284 26.5662C79.9284 27.9235 80.8198 28.5106 81.6161 29.1294C82.3989 29.703 83.84 30.4844 83.84 31.6903C83.84 32.7607 83.1138 33.2666 82.1659 33.2666C81.2587 33.2666 80.6411 32.8285 80.0777 32.431L79.4895 33.226C80.175 33.8967 81.2745 34.2264 82.193 34.2264C83.7314 34.2264 85.1726 33.2395 85.1726 31.7174C85.1726 30.4844 84.4034 29.6082 83.0867 28.6484C81.8492 27.7586 81.2587 27.2505 81.2587 26.5662C81.2587 25.8255 81.7949 25.2632 82.7564 25.2632C83.3333 25.2632 83.9509 25.6064 84.4169 25.9497L85.0481 25.2632Z" fill="white"/>
<path id="path2930" fill-rule="evenodd" clip-rule="evenodd" d="M89.7561 24.4683L85.8445 34.0615H87.134L88.1634 31.2386H91.8307L92.8171 34.0615H94.3555L90.7719 24.4683H89.7561ZM88.5344 30.2789C89.0571 28.951 89.5638 27.6208 90.0593 25.8932H90.0864C90.5661 27.6208 91.0321 28.951 91.514 30.2789H88.5344Z" fill="white"/>
<path id="path2932" d="M95.317 24.4683V30.3353C95.317 32.8014 96.403 34.2264 99.1065 34.2264C101.428 34.2264 102.758 32.6907 102.758 30.5386V24.4683H101.509V30.5115C101.509 31.8823 100.905 33.3073 99.1065 33.3073C97.3916 33.3073 96.6496 32.2662 96.6496 30.2789V24.4683H95.317Z" fill="white"/>
<path id="path2934" d="M57.825 11.729V17.5938C57.825 20.0599 58.9087 21.4871 61.6145 21.4871C63.9334 21.4871 65.266 19.9515 65.266 17.7993V11.729H64.0171V17.7722C64.0171 19.143 63.4131 20.568 61.6145 20.568C59.8996 20.568 59.1576 19.5269 59.1576 17.5396V11.729H57.825Z" fill="white"/>
<path id="path2936" d="M75.8539 11.729H74.7566V19.3756H74.7272C74.0824 18.4158 70.5418 14.2222 68.4265 11.729H67.4378V21.3223H68.5351V13.6892H68.5645C69.1414 14.5248 72.7227 18.8268 74.8109 21.3223H75.8539V11.729Z" fill="white"/>
<path id="path2938" d="M78.1615 21.3223H79.494V11.729H78.1615V21.3223Z" fill="white"/>
<path id="path2940" d="M85.0255 21.3223L88.8557 11.7562L87.6612 11.5913C86.6861 14.2087 85.6974 16.8396 84.7359 19.7867H84.7088C83.7903 16.8396 82.8695 14.2087 81.9351 11.5913L80.5777 11.8375L84.1341 21.3223H85.0255Z" fill="white"/>
<path id="path2942" d="M94.6768 11.729H89.9394V21.3223H95.2672V20.3625H91.2719V16.7447H94.6089V15.7849H91.2719V12.6865H94.6768V11.729Z" fill="white"/>
<path id="path2944" fill-rule="evenodd" clip-rule="evenodd" d="M98.0952 12.6865H99.2355C100.127 12.6865 100.867 13.1404 100.867 14.3193C100.867 15.1277 100.552 16.3879 98.8509 16.3879H98.0952V12.6865ZM96.7627 21.3223H98.0952V17.3477H99.5092L101.733 21.4849L103.079 21.0739L100.69 16.9908C101.609 16.4014 102.296 15.6065 102.296 14.1951C102.296 12.5375 101.075 11.729 99.5092 11.729H96.7627V21.3223Z" fill="white"/>
<path id="path2946" d="M109.531 12.5242C108.995 11.9213 108.158 11.5645 107.156 11.5645C105.658 11.5645 104.409 12.5378 104.409 13.825C104.409 15.1823 105.303 15.7717 106.099 16.3882C106.882 16.9641 108.323 17.7454 108.323 18.9514C108.323 20.0195 107.595 20.5276 106.649 20.5276C105.742 20.5276 105.124 20.0873 104.561 19.6898L103.971 20.4847C104.658 21.1577 105.756 21.4874 106.676 21.4874C108.215 21.4874 109.656 20.5005 109.656 18.9785C109.656 17.7454 108.887 16.8692 107.568 15.9094C106.332 15.0174 105.742 14.5115 105.742 13.825C105.742 13.0843 106.278 12.5242 107.237 12.5242C107.817 12.5242 108.434 12.8675 108.9 13.2085L109.531 12.5242Z" fill="white"/>
<path id="path2948" d="M111.536 21.3223H112.866V11.729H111.536V21.3223Z" fill="white"/>
<path id="path2950" d="M118.493 21.3223V12.6865H121.583V11.729H114.088V12.6865H117.162V21.3223H118.493Z" fill="white"/>
<path id="path2952" fill-rule="evenodd" clip-rule="evenodd" d="M124.465 8.90625C124.124 8.90625 123.78 9.26306 123.78 9.60406C123.78 9.97443 124.11 10.3177 124.465 10.3177C124.85 10.3177 125.167 9.98798 125.167 9.60406C125.167 9.2337 124.85 8.90625 124.465 8.90625ZM127.228 8.90625C126.884 8.90625 126.54 9.26306 126.54 9.60406C126.54 9.97443 126.87 10.3177 127.228 10.3177C127.61 10.3177 127.927 9.98798 127.927 9.60406C127.927 9.2337 127.61 8.90625 127.228 8.90625ZM125.511 11.7291L121.599 21.3224H122.889L123.918 18.4973H127.583L128.572 21.3224H130.11L126.526 11.7291H125.511ZM124.289 17.5397C124.809 16.2096 125.318 14.8795 125.812 13.1541H125.839C126.321 14.8795 126.787 16.2096 127.266 17.5397H124.289Z" fill="white"/>
<path id="path2954" d="M134.531 21.3223V12.6865H137.621V11.729H130.124V12.6865H133.2V21.3223H134.531Z" fill="white"/>
<path id="path2956" d="M25.9618 16.8397L25.9596 1.12872L39.2623 5.9502V11.8037H40.5632V5.91632L53.7844 1.1084V34.0254L52.4519 32.6953V3.00763L41.8957 6.84674V15.6541H37.9298V6.88062L27.2921 3.0257L27.2944 16.7291L25.9618 16.8397Z" fill="white"/>
<path id="path2958" d="M45.9363 36.8911H53.3161C47.8412 31.8303 42.7961 24.6218 51.0062 23.269L50.099 22.9438C41.6151 24.0956 42.6287 30.5227 45.9363 36.8911Z" fill="white"/>
<path id="path2960" d="M12.0392 28.6213H19.6068C23.9166 22.1738 31.8259 20.5795 41.7758 19.8997L40.8731 19.5723C28.7242 19.7191 16.7969 22.4719 12.0392 28.6213Z" fill="white"/>
<path id="path2962" d="M23.0909 31.3651H30.6947C31.7852 25.1074 36.8257 21.9819 44.8775 21.0334L43.9816 20.7104C33.4729 21.6296 24.9121 24.6625 23.0909 31.3651Z" fill="white"/>
<path id="path2964" d="M34.3552 34.0592L41.4998 34.1157C39.5813 28.4496 40.1242 23.0816 47.9339 22.1376L47.0199 21.8057C38.518 22.6141 33.9072 27.605 34.3552 34.0592Z" fill="white"/>
<path id="path2966" d="M1.37891 25.8525C6.1412 21.844 20.9032 18.3662 37.647 18.3662L38.6514 18.7479C22.5705 18.9218 15.1319 21.9479 8.94201 25.8909L1.37891 25.8525Z" fill="white"/>
</g>
</g>
</g>
</svg>
