<svg width="280" height="37" viewBox="0 0 280 37" fill="none" xmlns="http://www.w3.org/2000/svg">
<path d="M0.876421 27V0.818181H10.2088C12.2372 0.818181 13.9205 1.16761 15.2585 1.86648C16.6051 2.56534 17.6108 3.53267 18.2756 4.76847C18.9403 5.99574 19.2727 7.41477 19.2727 9.02557C19.2727 10.6278 18.9361 12.0384 18.2628 13.2571C17.598 14.4673 16.5923 15.4091 15.2457 16.0824C13.9077 16.7557 12.2244 17.0923 10.196 17.0923H3.12642V13.6918H9.83807C11.1165 13.6918 12.1563 13.5085 12.9574 13.142C13.767 12.7756 14.3594 12.2429 14.7344 11.544C15.1094 10.8452 15.2969 10.0057 15.2969 9.02557C15.2969 8.03693 15.1051 7.1804 14.7216 6.45597C14.3466 5.73153 13.7543 5.17756 12.9446 4.79403C12.1435 4.40199 11.0909 4.20597 9.78693 4.20597H4.8267V27H0.876421ZM13.8011 15.1875L20.2699 27H15.7699L9.42898 15.1875H13.8011ZM31.9897 27.3963C30.055 27.3963 28.3888 26.983 26.9911 26.1562C25.6019 25.321 24.5281 24.1491 23.7695 22.6406C23.0195 21.1236 22.6445 19.3466 22.6445 17.3097C22.6445 15.2983 23.0195 13.5256 23.7695 11.9915C24.5281 10.4574 25.5849 9.25994 26.94 8.39915C28.3036 7.53835 29.8974 7.10795 31.7212 7.10795C32.8292 7.10795 33.9031 7.29119 34.9428 7.65767C35.9826 8.02415 36.9158 8.59943 37.7425 9.38352C38.5692 10.1676 39.2212 11.1861 39.6985 12.4389C40.1758 13.6832 40.4144 15.196 40.4144 16.9773V18.3324H24.805V15.4688H36.6687C36.6687 14.4631 36.4641 13.5724 36.055 12.7969C35.646 12.0128 35.0707 11.3949 34.3292 10.9432C33.5962 10.4915 32.7354 10.2656 31.7468 10.2656C30.6729 10.2656 29.7354 10.5298 28.9343 11.0582C28.1417 11.5781 27.5281 12.2599 27.0934 13.1037C26.6673 13.9389 26.4542 14.8466 26.4542 15.8267V18.0639C26.4542 19.3764 26.6843 20.4929 27.1445 21.4134C27.6133 22.3338 28.2653 23.0369 29.1005 23.5227C29.9357 24 30.9116 24.2386 32.0281 24.2386C32.7525 24.2386 33.413 24.1364 34.0096 23.9318C34.6062 23.7187 35.1218 23.4034 35.5565 22.9858C35.9911 22.5682 36.3235 22.0526 36.5536 21.4389L40.1715 22.0909C39.8817 23.1562 39.3619 24.0895 38.6119 24.8906C37.8704 25.6832 36.9371 26.3011 35.8121 26.7443C34.6957 27.179 33.4215 27.3963 31.9897 27.3963ZM50.37 27.4347C49.1257 27.4347 48.0007 27.2045 46.995 26.7443C45.9893 26.2756 45.1925 25.598 44.6044 24.7116C44.0249 23.8253 43.7351 22.7386 43.7351 21.4517C43.7351 20.3437 43.9482 19.4318 44.3743 18.7159C44.8004 18 45.3757 17.4332 46.1001 17.0156C46.8246 16.598 47.6342 16.2827 48.5291 16.0696C49.424 15.8565 50.3359 15.6946 51.2649 15.5838C52.4411 15.4474 53.3956 15.3366 54.1286 15.2514C54.8615 15.1577 55.3942 15.0085 55.7266 14.804C56.0589 14.5994 56.2251 14.267 56.2251 13.8068V13.7173C56.2251 12.6009 55.9098 11.7358 55.2791 11.1222C54.657 10.5085 53.728 10.2017 52.4922 10.2017C51.2053 10.2017 50.1911 10.4872 49.4496 11.0582C48.7166 11.6207 48.2095 12.2472 47.9283 12.9375L44.3359 12.1193C44.7621 10.9261 45.3842 9.96307 46.2024 9.23011C47.0291 8.48864 47.9794 7.9517 49.0533 7.61932C50.1271 7.27841 51.2564 7.10795 52.4411 7.10795C53.2251 7.10795 54.0561 7.2017 54.9339 7.3892C55.8203 7.56818 56.647 7.90057 57.4141 8.38636C58.1896 8.87216 58.8246 9.56676 59.3189 10.4702C59.8132 11.3651 60.0604 12.5284 60.0604 13.9602V27H56.3274V24.3153H56.174C55.9268 24.8097 55.5561 25.2955 55.0618 25.7727C54.5675 26.25 53.9325 26.6463 53.157 26.9616C52.3814 27.277 51.4524 27.4347 50.37 27.4347ZM51.201 24.3665C52.2578 24.3665 53.1612 24.1577 53.9112 23.7401C54.6697 23.3224 55.245 22.777 55.6371 22.1037C56.0376 21.4219 56.2379 20.6932 56.2379 19.9176V17.3864C56.1016 17.5227 55.8374 17.6506 55.4453 17.7699C55.0618 17.8807 54.6229 17.9787 54.1286 18.0639C53.6342 18.1406 53.1527 18.2131 52.6839 18.2812C52.2152 18.3409 51.8232 18.392 51.5078 18.4347C50.7663 18.5284 50.0888 18.6861 49.4751 18.9077C48.87 19.1293 48.3842 19.4489 48.0178 19.8665C47.6598 20.2756 47.4808 20.821 47.4808 21.5028C47.4808 22.4489 47.8303 23.1648 48.5291 23.6506C49.228 24.1278 50.1186 24.3665 51.201 24.3665ZM72.5025 27.3835C70.9173 27.3835 69.5025 26.9787 68.2582 26.169C67.0224 25.3509 66.0508 24.1875 65.3434 22.679C64.6445 21.1619 64.2951 19.3423 64.2951 17.2202C64.2951 15.098 64.6488 13.2827 65.3562 11.7741C66.0721 10.2656 67.0522 9.1108 68.2965 8.30966C69.5408 7.50852 70.9513 7.10795 72.5281 7.10795C73.7468 7.10795 74.7269 7.3125 75.4684 7.72159C76.2184 8.12216 76.7979 8.59091 77.207 9.12784C77.6246 9.66477 77.9485 10.1378 78.1786 10.5469H78.4087V0.818181H82.2312V27H78.4982V23.9446H78.1786C77.9485 24.3622 77.6161 24.8395 77.1815 25.3764C76.7553 25.9134 76.1673 26.3821 75.4173 26.7827C74.6673 27.1832 73.6957 27.3835 72.5025 27.3835ZM73.3462 24.1236C74.4457 24.1236 75.3746 23.8338 76.1332 23.2543C76.9002 22.6662 77.4798 21.8523 77.8718 20.8125C78.2724 19.7727 78.4727 18.5625 78.4727 17.1818C78.4727 15.8182 78.2766 14.625 77.8846 13.6023C77.4925 12.5795 76.9173 11.7827 76.1587 11.2116C75.4002 10.6406 74.4627 10.3551 73.3462 10.3551C72.1957 10.3551 71.2369 10.6534 70.4698 11.25C69.7028 11.8466 69.1232 12.6605 68.7312 13.6918C68.3477 14.723 68.1559 15.8864 68.1559 17.1818C68.1559 18.4943 68.3519 19.6747 68.744 20.723C69.136 21.7713 69.7156 22.6023 70.4826 23.2159C71.2582 23.821 72.2127 24.1236 73.3462 24.1236ZM87.9936 27V0.818181H97.326C99.3629 0.818181 101.05 1.18892 102.388 1.9304C103.727 2.67187 104.728 3.68608 105.393 4.97301C106.058 6.25142 106.39 7.69176 106.39 9.29403C106.39 10.9048 106.053 12.3537 105.38 13.6406C104.715 14.919 103.71 15.9332 102.363 16.6832C101.025 17.4247 99.3416 17.7955 97.3132 17.7955H90.8956V14.446H96.9553C98.2422 14.446 99.2862 14.2244 100.087 13.7812C100.888 13.3295 101.477 12.7159 101.852 11.9403C102.227 11.1648 102.414 10.2827 102.414 9.29403C102.414 8.3054 102.227 7.42756 101.852 6.66051C101.477 5.89346 100.884 5.29261 100.075 4.85795C99.2734 4.4233 98.2166 4.20597 96.9041 4.20597H91.9439V27H87.9936ZM116.253 27.4347C115.009 27.4347 113.884 27.2045 112.878 26.7443C111.872 26.2756 111.075 25.598 110.487 24.7116C109.908 23.8253 109.618 22.7386 109.618 21.4517C109.618 20.3437 109.831 19.4318 110.257 18.7159C110.683 18 111.259 17.4332 111.983 17.0156C112.707 16.598 113.517 16.2827 114.412 16.0696C115.307 15.8565 116.219 15.6946 117.148 15.5838C118.324 15.4474 119.278 15.3366 120.011 15.2514C120.744 15.1577 121.277 15.0085 121.609 14.804C121.942 14.5994 122.108 14.267 122.108 13.8068V13.7173C122.108 12.6009 121.793 11.7358 121.162 11.1222C120.54 10.5085 119.611 10.2017 118.375 10.2017C117.088 10.2017 116.074 10.4872 115.332 11.0582C114.599 11.6207 114.092 12.2472 113.811 12.9375L110.219 12.1193C110.645 10.9261 111.267 9.96307 112.085 9.23011C112.912 8.48864 113.862 7.9517 114.936 7.61932C116.01 7.27841 117.139 7.10795 118.324 7.10795C119.108 7.10795 119.939 7.2017 120.817 7.3892C121.703 7.56818 122.53 7.90057 123.297 8.38636C124.072 8.87216 124.707 9.56676 125.202 10.4702C125.696 11.3651 125.943 12.5284 125.943 13.9602V27H122.21V24.3153H122.057C121.81 24.8097 121.439 25.2955 120.945 25.7727C120.45 26.25 119.815 26.6463 119.04 26.9616C118.264 27.277 117.335 27.4347 116.253 27.4347ZM117.084 24.3665C118.141 24.3665 119.044 24.1577 119.794 23.7401C120.553 23.3224 121.128 22.777 121.52 22.1037C121.92 21.4219 122.121 20.6932 122.121 19.9176V17.3864C121.984 17.5227 121.72 17.6506 121.328 17.7699C120.945 17.8807 120.506 17.9787 120.011 18.0639C119.517 18.1406 119.036 18.2131 118.567 18.2812C118.098 18.3409 117.706 18.392 117.391 18.4347C116.649 18.5284 115.972 18.6861 115.358 18.9077C114.753 19.1293 114.267 19.4489 113.901 19.8665C113.543 20.2756 113.364 20.821 113.364 21.5028C113.364 22.4489 113.713 23.1648 114.412 23.6506C115.111 24.1278 116.001 24.3665 117.084 24.3665ZM131.034 34.3636V7.36364H134.767V10.5469H135.087C135.309 10.1378 135.628 9.66477 136.046 9.12784C136.463 8.59091 137.043 8.12216 137.784 7.72159C138.526 7.3125 139.506 7.10795 140.725 7.10795C142.31 7.10795 143.725 7.50852 144.969 8.30966C146.213 9.1108 147.189 10.2656 147.897 11.7741C148.613 13.2827 148.971 15.098 148.971 17.2202C148.971 19.3423 148.617 21.1619 147.909 22.679C147.202 24.1875 146.23 25.3509 144.995 26.169C143.759 26.9787 142.348 27.3835 140.763 27.3835C139.57 27.3835 138.594 27.1832 137.836 26.7827C137.086 26.3821 136.498 25.9134 136.071 25.3764C135.645 24.8395 135.317 24.3622 135.087 23.9446H134.857V34.3636H131.034ZM134.78 17.1818C134.78 18.5625 134.98 19.7727 135.381 20.8125C135.782 21.8523 136.361 22.6662 137.12 23.2543C137.878 23.8338 138.807 24.1236 139.907 24.1236C141.049 24.1236 142.003 23.821 142.77 23.2159C143.537 22.6023 144.117 21.7713 144.509 20.723C144.909 19.6747 145.11 18.4943 145.11 17.1818C145.11 15.8864 144.914 14.723 144.522 13.6918C144.138 12.6605 143.559 11.8466 142.783 11.25C142.016 10.6534 141.057 10.3551 139.907 10.3551C138.799 10.3551 137.861 10.6406 137.094 11.2116C136.336 11.7827 135.76 12.5795 135.368 13.6023C134.976 14.625 134.78 15.8182 134.78 17.1818ZM161.716 27.3963C159.782 27.3963 158.115 26.983 156.718 26.1562C155.328 25.321 154.255 24.1491 153.496 22.6406C152.746 21.1236 152.371 19.3466 152.371 17.3097C152.371 15.2983 152.746 13.5256 153.496 11.9915C154.255 10.4574 155.311 9.25994 156.667 8.39915C158.03 7.53835 159.624 7.10795 161.448 7.10795C162.556 7.10795 163.63 7.29119 164.669 7.65767C165.709 8.02415 166.642 8.59943 167.469 9.38352C168.296 10.1676 168.948 11.1861 169.425 12.4389C169.902 13.6832 170.141 15.196 170.141 16.9773V18.3324H154.532V15.4688H166.395C166.395 14.4631 166.191 13.5724 165.782 12.7969C165.373 12.0128 164.797 11.3949 164.056 10.9432C163.323 10.4915 162.462 10.2656 161.473 10.2656C160.4 10.2656 159.462 10.5298 158.661 11.0582C157.868 11.5781 157.255 12.2599 156.82 13.1037C156.394 13.9389 156.181 14.8466 156.181 15.8267V18.0639C156.181 19.3764 156.411 20.4929 156.871 21.4134C157.34 22.3338 157.992 23.0369 158.827 23.5227C159.662 24 160.638 24.2386 161.755 24.2386C162.479 24.2386 163.14 24.1364 163.736 23.9318C164.333 23.7187 164.848 23.4034 165.283 22.9858C165.718 22.5682 166.05 22.0526 166.28 21.4389L169.898 22.0909C169.608 23.1562 169.088 24.0895 168.338 24.8906C167.597 25.6832 166.664 26.3011 165.539 26.7443C164.422 27.179 163.148 27.3963 161.716 27.3963ZM174.382 27V7.36364H178.077V10.483H178.281C178.639 9.42614 179.27 8.59517 180.173 7.99006C181.085 7.37642 182.116 7.0696 183.267 7.0696C183.506 7.0696 183.787 7.07812 184.111 7.09517C184.443 7.11221 184.703 7.13352 184.891 7.15909V10.8153C184.737 10.7727 184.464 10.7259 184.072 10.6747C183.68 10.6151 183.288 10.5852 182.896 10.5852C181.993 10.5852 181.188 10.777 180.48 11.1605C179.781 11.5355 179.227 12.0597 178.818 12.733C178.409 13.3977 178.205 14.1562 178.205 15.0085V27H174.382ZM202.913 12.1577L199.449 12.7713C199.304 12.3281 199.074 11.9062 198.758 11.5057C198.451 11.1051 198.034 10.777 197.505 10.5213C196.977 10.2656 196.316 10.1378 195.524 10.1378C194.441 10.1378 193.538 10.3807 192.814 10.8665C192.089 11.3437 191.727 11.9616 191.727 12.7202C191.727 13.3764 191.97 13.9048 192.456 14.3054C192.941 14.706 193.725 15.0341 194.808 15.2898L197.927 16.0057C199.734 16.4233 201.081 17.0668 201.967 17.9361C202.853 18.8054 203.297 19.9347 203.297 21.3239C203.297 22.5 202.956 23.5483 202.274 24.4688C201.6 25.3807 200.659 26.0966 199.449 26.6165C198.247 27.1364 196.853 27.3963 195.268 27.3963C193.069 27.3963 191.275 26.9276 189.886 25.9901C188.497 25.044 187.645 23.7017 187.329 21.9631L191.024 21.4006C191.254 22.3636 191.727 23.0923 192.443 23.5866C193.159 24.0724 194.092 24.3153 195.243 24.3153C196.495 24.3153 197.497 24.0554 198.247 23.5355C198.997 23.0071 199.372 22.3636 199.372 21.6051C199.372 20.9915 199.142 20.4759 198.681 20.0582C198.23 19.6406 197.535 19.3253 196.598 19.1122L193.274 18.3835C191.441 17.9659 190.086 17.3011 189.208 16.3892C188.339 15.4773 187.904 14.3224 187.904 12.9247C187.904 11.7656 188.228 10.7514 188.876 9.8821C189.524 9.01278 190.419 8.33523 191.561 7.84943C192.703 7.35511 194.011 7.10795 195.485 7.10795C197.608 7.10795 199.278 7.56818 200.497 8.48864C201.716 9.40057 202.521 10.6236 202.913 12.1577ZM207.806 27V0.818181H224.042V4.21875H211.756V12.196H222.879V15.5838H211.756V27H207.806ZM234.237 27.4347C232.993 27.4347 231.868 27.2045 230.862 26.7443C229.857 26.2756 229.06 25.598 228.472 24.7116C227.892 23.8253 227.602 22.7386 227.602 21.4517C227.602 20.3437 227.815 19.4318 228.241 18.7159C228.668 18 229.243 17.4332 229.967 17.0156C230.692 16.598 231.501 16.2827 232.396 16.0696C233.291 15.8565 234.203 15.6946 235.132 15.5838C236.308 15.4474 237.263 15.3366 237.996 15.2514C238.729 15.1577 239.261 15.0085 239.594 14.804C239.926 14.5994 240.092 14.267 240.092 13.8068V13.7173C240.092 12.6009 239.777 11.7358 239.146 11.1222C238.524 10.5085 237.595 10.2017 236.359 10.2017C235.072 10.2017 234.058 10.4872 233.317 11.0582C232.584 11.6207 232.077 12.2472 231.795 12.9375L228.203 12.1193C228.629 10.9261 229.251 9.96307 230.07 9.23011C230.896 8.48864 231.847 7.9517 232.92 7.61932C233.994 7.27841 235.124 7.10795 236.308 7.10795C237.092 7.10795 237.923 7.2017 238.801 7.3892C239.688 7.56818 240.514 7.90057 241.281 8.38636C242.057 8.87216 242.692 9.56676 243.186 10.4702C243.68 11.3651 243.928 12.5284 243.928 13.9602V27H240.195V24.3153H240.041C239.794 24.8097 239.423 25.2955 238.929 25.7727C238.435 26.25 237.8 26.6463 237.024 26.9616C236.249 27.277 235.32 27.4347 234.237 27.4347ZM235.068 24.3665C236.125 24.3665 237.028 24.1577 237.778 23.7401C238.537 23.3224 239.112 22.777 239.504 22.1037C239.905 21.4219 240.105 20.6932 240.105 19.9176V17.3864C239.969 17.5227 239.705 17.6506 239.312 17.7699C238.929 17.8807 238.49 17.9787 237.996 18.0639C237.501 18.1406 237.02 18.2131 236.551 18.2812C236.082 18.3409 235.69 18.392 235.375 18.4347C234.634 18.5284 233.956 18.6861 233.342 18.9077C232.737 19.1293 232.251 19.4489 231.885 19.8665C231.527 20.2756 231.348 20.821 231.348 21.5028C231.348 22.4489 231.697 23.1648 232.396 23.6506C233.095 24.1278 233.986 24.3665 235.068 24.3665ZM263.733 12.1577L260.269 12.7713C260.124 12.3281 259.894 11.9062 259.578 11.5057C259.272 11.1051 258.854 10.777 258.326 10.5213C257.797 10.2656 257.137 10.1378 256.344 10.1378C255.262 10.1378 254.358 10.3807 253.634 10.8665C252.909 11.3437 252.547 11.9616 252.547 12.7202C252.547 13.3764 252.79 13.9048 253.276 14.3054C253.762 14.706 254.546 15.0341 255.628 15.2898L258.748 16.0057C260.554 16.4233 261.901 17.0668 262.787 17.9361C263.674 18.8054 264.117 19.9347 264.117 21.3239C264.117 22.5 263.776 23.5483 263.094 24.4688C262.421 25.3807 261.479 26.0966 260.269 26.6165C259.067 27.1364 257.674 27.3963 256.088 27.3963C253.89 27.3963 252.096 26.9276 250.706 25.9901C249.317 25.044 248.465 23.7017 248.15 21.9631L251.844 21.4006C252.074 22.3636 252.547 23.0923 253.263 23.5866C253.979 24.0724 254.912 24.3153 256.063 24.3153C257.316 24.3153 258.317 24.0554 259.067 23.5355C259.817 23.0071 260.192 22.3636 260.192 21.6051C260.192 20.9915 259.962 20.4759 259.502 20.0582C259.05 19.6406 258.355 19.3253 257.418 19.1122L254.094 18.3835C252.262 17.9659 250.907 17.3011 250.029 16.3892C249.159 15.4773 248.725 14.3224 248.725 12.9247C248.725 11.7656 249.049 10.7514 249.696 9.8821C250.344 9.01278 251.239 8.33523 252.381 7.84943C253.523 7.35511 254.831 7.10795 256.306 7.10795C258.428 7.10795 260.098 7.56818 261.317 8.48864C262.536 9.40057 263.341 10.6236 263.733 12.1577ZM277.486 7.36364V10.4318H266.76V7.36364H277.486ZM269.636 2.65909H273.459V21.2344C273.459 21.9759 273.57 22.5341 273.791 22.9091C274.013 23.2756 274.298 23.527 274.648 23.6634C275.006 23.7912 275.393 23.8551 275.811 23.8551C276.118 23.8551 276.386 23.8338 276.616 23.7912C276.847 23.7486 277.026 23.7145 277.153 23.6889L277.844 26.8466C277.622 26.9318 277.307 27.017 276.898 27.1023C276.489 27.196 275.977 27.2472 275.364 27.2557C274.358 27.2727 273.42 27.0938 272.551 26.7188C271.682 26.3438 270.979 25.7642 270.442 24.9801C269.905 24.196 269.636 23.2116 269.636 22.027V2.65909Z" fill="black"/>
<path d="M204.93 34.1591H279.135V36.6136H204.93V34.1591Z" fill="black"/>
</svg>
