<svg width="52" height="52" viewBox="0 0 52 52" fill="none" xmlns="http://www.w3.org/2000/svg">
<g id="Uc-irvine_logo_from_NCAA logo">
<g id="uc-irvine">
<g id="uc-irvine_BGL">
<g id="uc-irvine_2">
<g id="g10">
<g id="g12">
<path id="path14" d="M34.7369 39.7703C34.7369 42.665 32.7834 45.7581 27.301 45.7581H25.1522C19.6696 45.7581 17.7162 42.665 17.7162 39.7703V37.4382C19.4534 37.7315 21.299 37.9268 23.2321 38.0268V39.2452H20.468V44.5109H31.9785V39.2452H29.2141V38.0575C31.1467 37.9949 32.9877 37.8698 34.7369 37.6835V39.7703ZM11.6364 29.3318C9.07072 28.0112 7.92237 26.4866 7.92237 25.5612C7.92237 24.636 9.07072 23.1115 11.6364 21.791C11.662 21.7778 11.6892 21.7644 11.7152 21.7512V29.3714C11.6892 29.3583 11.662 29.3449 11.6364 29.3318ZM23.2321 19.103V32.0198C21.1167 31.8996 19.2882 31.6562 17.7162 31.3424L17.7162 19.7803C19.2882 19.4665 21.1167 19.2232 23.2321 19.103ZM34.7369 19.4857L34.7369 31.637C33.0788 31.8342 31.245 31.979 29.2141 32.0511V19.0717C31.2449 19.1437 33.0788 19.2885 34.7369 19.4857ZM46.2984 28.4662C46.2655 28.4838 46.2346 28.5013 46.2011 28.5188C44.9162 29.1928 43.1404 29.9199 40.7378 30.5421L40.7378 20.5807C43.1404 21.2029 44.9161 21.93 46.2009 22.6039C46.3218 22.6674 46.4383 22.7308 46.5527 22.794L50.1633 17.9497C47.5989 16.4043 44.4489 15.2189 40.7378 14.3978V5.36725H43.4913V0.101551H31.9811V5.36725H34.7369V13.439C32.9876 13.2528 31.1467 13.1277 29.2141 13.0651V11.8898L31.9811 11.8898L31.9811 6.62411L20.4708 6.62411L20.4708 11.8898H23.2321V13.096C21.299 13.196 19.4535 13.3913 17.7162 13.6845V5.36725H20.4708V0.101551H8.96041L8.96041 5.36725H11.7152V15.231C10.7127 15.5959 9.76756 16.0023 8.89073 16.4535C4.4616 18.7331 1.92139 22.0527 1.92139 25.5612C1.92139 29.0698 4.4616 32.3896 8.89073 34.669C9.76756 35.1202 10.7127 35.5267 11.7152 35.8916V39.7703C11.7152 46.8299 17.2408 51.7604 25.1522 51.7604H27.301C35.2125 51.7604 40.7378 46.8299 40.7378 39.7703V36.7244C44.3303 35.9293 47.397 34.7931 49.9155 33.3192L46.2984 28.4662Z" fill="#FBC01C"/>
<path id="path16" d="M23.232 33.0989C12.0738 32.4729 6.84221 28.3929 6.84221 25.5612C6.84221 22.7296 12.0738 18.65 23.232 18.024V14.1779C17.7148 14.4682 12.9684 15.5702 9.385 17.4145C5.32827 19.5022 3.00159 22.4715 3.00159 25.5612C3.00159 28.651 5.32827 31.6206 9.385 33.7083C12.9684 35.5525 17.7148 36.6548 23.232 36.9451L23.232 33.0989ZM29.2141 33.1325L29.2141 36.9741C37.3071 36.709 43.751 35.3486 48.4163 32.9135L46.0809 29.7799C42.7831 31.377 37.5244 32.8459 29.2141 33.1325ZM48.6733 18.3432C43.9887 15.8235 37.4556 14.419 29.2141 14.1492V17.9904C37.7475 18.2846 43.0624 19.8257 46.3416 21.4718L48.6733 18.3432ZM35.8171 37.5595V39.7703C35.8171 44.9874 31.2296 46.8386 27.301 46.8386H25.1522C18.8664 46.8386 16.636 43.0308 16.636 39.7703V37.2406C15.2822 36.9741 14.0014 36.6449 12.7954 36.2592V39.7703C12.7954 46.1937 17.8767 50.6802 25.1522 50.6802H27.301C34.5764 50.6802 39.6577 46.1937 39.6577 39.7703V36.9495C38.4346 37.1904 37.1544 37.3938 35.8171 37.5595ZM12.7954 14.8634C14.0014 14.4777 15.2822 14.1486 16.636 13.8822V4.4099H19.394V1.05894H10.0373L10.0373 4.4099H12.7954L12.7954 14.8634ZM39.6577 20.3181C38.5093 20.0568 37.2335 19.8208 35.8171 19.6238L35.8171 31.4989C37.2334 31.302 38.5093 31.0659 39.6577 30.8048L39.6577 20.3181ZM35.8171 13.5635C37.1542 13.7291 38.4347 13.9324 39.6577 14.1731V4.4099H42.4145V1.05894H33.0578V4.4099H35.8171V13.5635ZM16.636 20.0153C15.0838 20.3832 13.8165 20.8164 12.7954 21.25L12.7954 29.8727C13.8165 30.3064 15.0837 30.7396 16.636 31.1075L16.636 20.0153ZM28.1374 10.9325L28.1374 40.2025H30.9014V43.5535H21.5448V40.2025H24.3087L24.3087 10.9325H21.5475V7.5815H30.9042V10.9325H28.1374Z" fill="#16243A"/>
<path id="path18" d="M43.9159 38.9766H44.0739C44.1626 38.9766 44.2281 38.9632 44.2706 38.9364C44.3131 38.9096 44.3344 38.8657 44.3344 38.8048C44.3344 38.7401 44.3122 38.6939 44.2678 38.6662C44.2235 38.6385 44.1551 38.6246 44.0628 38.6246H43.9159V38.9766ZM44.1071 38.4721C44.266 38.4721 44.3847 38.498 44.4632 38.5497C44.5418 38.6015 44.581 38.6773 44.581 38.777C44.581 38.8602 44.5597 38.9281 44.5173 38.9807C44.4747 39.0334 44.4129 39.069 44.3316 39.0874L44.581 39.5947H44.3122L44.0906 39.1262H43.9159V39.5947H43.6749V38.4721H44.1071ZM44.085 38.1977C43.8503 38.1977 43.6518 38.279 43.4892 38.4417C43.406 38.5266 43.3423 38.6214 43.298 38.7257C43.2536 38.8302 43.2314 38.9388 43.2314 39.0514C43.2314 39.1642 43.2522 39.2714 43.2938 39.373C43.3353 39.4746 43.3968 39.567 43.4781 39.6502C43.5612 39.7333 43.6536 39.7967 43.7552 39.84C43.8568 39.8835 43.9621 39.9052 44.0712 39.9052C44.3113 39.9052 44.5173 39.822 44.6891 39.6557C44.7704 39.578 44.8322 39.4885 44.8748 39.3869C44.9172 39.2852 44.9385 39.178 44.9385 39.0653C44.9385 38.8232 44.8572 38.6191 44.6947 38.4527C44.5246 38.2827 44.3214 38.1977 44.085 38.1977ZM44.0822 38.0508C44.2207 38.0508 44.3505 38.0757 44.4716 38.1257C44.5925 38.1756 44.702 38.2503 44.7999 38.3502C44.8941 38.4444 44.9652 38.5511 45.0133 38.6703C45.0613 38.7895 45.0854 38.9166 45.0854 39.0514C45.0854 39.1901 45.0605 39.3194 45.0105 39.4395C44.9606 39.5597 44.8876 39.6668 44.7916 39.761C44.6919 39.8571 44.5815 39.9301 44.4605 39.98C44.3394 40.0299 44.2133 40.0549 44.0822 40.0549C43.9492 40.0549 43.8218 40.029 43.6998 39.9772C43.5778 39.9255 43.4688 39.8506 43.3728 39.7527C43.2785 39.6566 43.2065 39.549 43.1566 39.4298C43.1067 39.3106 43.0818 39.1845 43.0818 39.0514C43.0818 38.9183 43.1077 38.7904 43.1594 38.6675C43.2111 38.5447 43.286 38.4342 43.3839 38.3363C43.5741 38.1459 43.8069 38.0508 44.0822 38.0508Z" fill="#16243A"/>
</g>
</g>
</g>
</g>
</g>
</g>
</svg>
