<svg width="52" height="52" viewBox="0 0 52 52" fill="none" xmlns="http://www.w3.org/2000/svg">
<g id="Uc-irvine_logo_from_NCAA logo">
<g id="uc-irvine">
<g id="uc-irvine_BGL">
<g id="uc-irvine_2">
<g id="g10">
<g id="g12">
<path id="path14" d="M34.7369 39.7701C34.7369 42.6648 32.7834 45.7579 27.301 45.7579H25.1522C19.6696 45.7579 17.7162 42.6648 17.7162 39.7701V37.438C19.4534 37.7313 21.299 37.9267 23.2321 38.0266V39.245H20.468V44.5107H31.9785V39.245H29.2141V38.0573C31.1467 37.9947 32.9877 37.8696 34.7369 37.6833V39.7701ZM11.6364 29.3316C9.07072 28.011 7.92237 26.4864 7.92237 25.561C7.92237 24.6358 9.07072 23.1113 11.6364 21.7908C11.662 21.7776 11.6892 21.7642 11.7152 21.751V29.3713C11.6892 29.3581 11.662 29.3448 11.6364 29.3316ZM23.2321 19.1028V32.0196C21.1167 31.8994 19.2882 31.656 17.7162 31.3422L17.7162 19.7801C19.2882 19.4664 21.1167 19.223 23.2321 19.1028ZM34.7369 19.4855L34.7369 31.6369C33.0788 31.834 31.245 31.9788 29.2141 32.0509V19.0715C31.2449 19.1435 33.0788 19.2884 34.7369 19.4855ZM46.2984 28.466C46.2655 28.4836 46.2346 28.5011 46.2011 28.5186C44.9162 29.1926 43.1404 29.9197 40.7378 30.5419L40.7378 20.5805C43.1404 21.2027 44.9161 21.9298 46.2009 22.6037C46.3218 22.6672 46.4383 22.7306 46.5527 22.7939L50.1633 17.9496C47.5989 16.4041 44.4489 15.2187 40.7378 14.3976V5.36706H43.4913V0.101369H31.9811V5.36706H34.7369V13.4388C32.9876 13.2526 31.1467 13.1275 29.2141 13.0649V11.8896L31.9811 11.8896L31.9811 6.62393L20.4708 6.62393L20.4708 11.8896H23.2321V13.0959C21.299 13.1958 19.4535 13.3911 17.7162 13.6844V5.36706H20.4708V0.101369H8.96041L8.96041 5.36706H11.7152V15.2309C10.7127 15.5957 9.76756 16.0021 8.89073 16.4533C4.4616 18.7329 1.92139 22.0525 1.92139 25.561C1.92139 29.0697 4.4616 32.3895 8.89073 34.6688C9.76756 35.1201 10.7127 35.5265 11.7152 35.8914V39.7701C11.7152 46.8297 17.2408 51.7603 25.1522 51.7603H27.301C35.2125 51.7603 40.7378 46.8297 40.7378 39.7701V36.7242C44.3303 35.9291 47.397 34.7929 49.9155 33.319L46.2984 28.466Z" fill="#D9D9D9"/>
<path id="path16" d="M23.232 33.0989C12.0738 32.4729 6.84221 28.3929 6.84221 25.5612C6.84221 22.7296 12.0738 18.65 23.232 18.024V14.1779C17.7148 14.4682 12.9684 15.5702 9.385 17.4145C5.32827 19.5022 3.00159 22.4715 3.00159 25.5612C3.00159 28.651 5.32827 31.6206 9.385 33.7083C12.9684 35.5525 17.7148 36.6548 23.232 36.9451L23.232 33.0989ZM29.2141 33.1325L29.2141 36.9741C37.3071 36.709 43.751 35.3486 48.4163 32.9135L46.0809 29.7799C42.7831 31.377 37.5244 32.8459 29.2141 33.1325ZM48.6733 18.3432C43.9887 15.8235 37.4556 14.419 29.2141 14.1491V17.9904C37.7475 18.2846 43.0624 19.8257 46.3416 21.4718L48.6733 18.3432ZM35.8171 37.5595V39.7703C35.8171 44.9874 31.2296 46.8386 27.301 46.8386H25.1522C18.8664 46.8386 16.636 43.0308 16.636 39.7703V37.2406C15.2822 36.9741 14.0014 36.6449 12.7954 36.2592V39.7703C12.7954 46.1937 17.8767 50.6802 25.1522 50.6802H27.301C34.5764 50.6802 39.6577 46.1937 39.6577 39.7703V36.9495C38.4346 37.1904 37.1544 37.3938 35.8171 37.5595ZM12.7954 14.8634C14.0014 14.4777 15.2822 14.1486 16.636 13.8822V4.4099H19.394V1.05894H10.0373L10.0373 4.4099H12.7954L12.7954 14.8634ZM39.6577 20.3181C38.5093 20.0568 37.2335 19.8208 35.8171 19.6238L35.8171 31.4989C37.2334 31.302 38.5093 31.0659 39.6577 30.8048L39.6577 20.3181ZM35.8171 13.5635C37.1542 13.7291 38.4347 13.9324 39.6577 14.1731V4.4099H42.4145V1.05894H33.0578V4.4099H35.8171V13.5635ZM16.636 20.0153C15.0838 20.3832 13.8165 20.8164 12.7954 21.25L12.7954 29.8727C13.8165 30.3064 15.0837 30.7396 16.636 31.1075L16.636 20.0153ZM28.1374 10.9325L28.1374 40.2025H30.9014V43.5535H21.5448V40.2025H24.3087L24.3087 10.9325H21.5475V7.5815H30.9042V10.9325H28.1374Z" fill="white"/>
<path id="path18" d="M43.9159 38.9764H44.0739C44.1626 38.9764 44.2281 38.963 44.2706 38.9362C44.3131 38.9094 44.3344 38.8656 44.3344 38.8046C44.3344 38.7399 44.3122 38.6937 44.2678 38.666C44.2235 38.6383 44.1551 38.6244 44.0628 38.6244H43.9159V38.9764ZM44.1071 38.472C44.266 38.472 44.3847 38.4979 44.4632 38.5495C44.5418 38.6013 44.581 38.6771 44.581 38.7768C44.581 38.86 44.5597 38.9279 44.5173 38.9806C44.4747 39.0332 44.4129 39.0689 44.3316 39.0872L44.581 39.5945H44.3122L44.0906 39.1261H43.9159V39.5945H43.6749V38.472H44.1071ZM44.085 38.1975C43.8503 38.1975 43.6518 38.2788 43.4892 38.4415C43.406 38.5265 43.3423 38.6212 43.298 38.7256C43.2536 38.83 43.2314 38.9386 43.2314 39.0512C43.2314 39.164 43.2522 39.2712 43.2938 39.3728C43.3353 39.4744 43.3968 39.5668 43.4781 39.65C43.5612 39.7332 43.6536 39.7965 43.7552 39.8398C43.8568 39.8833 43.9621 39.905 44.0712 39.905C44.3113 39.905 44.5173 39.8219 44.6891 39.6555C44.7704 39.5779 44.8322 39.4883 44.8748 39.3867C44.9172 39.2851 44.9385 39.1778 44.9385 39.0651C44.9385 38.823 44.8572 38.6189 44.6947 38.4526C44.5246 38.2825 44.3214 38.1975 44.085 38.1975ZM44.0822 38.0506C44.2207 38.0506 44.3505 38.0755 44.4716 38.1255C44.5925 38.1754 44.702 38.2501 44.7999 38.35C44.8941 38.4442 44.9652 38.5509 45.0133 38.6701C45.0613 38.7893 45.0854 38.9164 45.0854 39.0512C45.0854 39.1899 45.0605 39.3192 45.0105 39.4393C44.9606 39.5595 44.8876 39.6666 44.7916 39.7608C44.6919 39.8569 44.5815 39.9299 44.4605 39.9798C44.3394 40.0297 44.2133 40.0547 44.0822 40.0547C43.9492 40.0547 43.8218 40.0288 43.6998 39.977C43.5778 39.9254 43.4688 39.8504 43.3728 39.7525C43.2785 39.6564 43.2065 39.5488 43.1566 39.4296C43.1067 39.3104 43.0818 39.1843 43.0818 39.0512C43.0818 38.9182 43.1077 38.7903 43.1594 38.6673C43.2111 38.5445 43.286 38.434 43.3839 38.3361C43.5741 38.1458 43.8069 38.0506 44.0822 38.0506Z" fill="white"/>
</g>
</g>
</g>
</g>
</g>
</g>
</svg>
