<svg width="52" height="52" viewBox="0 0 52 52" fill="none" xmlns="http://www.w3.org/2000/svg">
<g id="Uc-irvine_logo_from_NCAA logo">
<g id="uc-irvine">
<g id="uc-irvine_BGL">
<g id="uc-irvine_2">
<g id="g10">
<g id="g12">
<path id="path14" d="M34.7369 39.7701C34.7369 42.6648 32.7834 45.7579 27.301 45.7579H25.1522C19.6696 45.7579 17.7162 42.6648 17.7162 39.7701V37.438C19.4534 37.7313 21.299 37.9267 23.2321 38.0266V39.245H20.468V44.5107H31.9785V39.245H29.2141V38.0573C31.1467 37.9947 32.9877 37.8696 34.7369 37.6833V39.7701ZM11.6364 29.3316C9.07072 28.011 7.92237 26.4864 7.92237 25.561C7.92237 24.6358 9.07072 23.1113 11.6364 21.7908C11.662 21.7776 11.6892 21.7642 11.7152 21.751V29.3713C11.6892 29.3581 11.662 29.3448 11.6364 29.3316ZM23.2321 19.1028V32.0196C21.1167 31.8994 19.2882 31.656 17.7162 31.3422L17.7162 19.7801C19.2882 19.4664 21.1167 19.223 23.2321 19.1028ZM34.7369 19.4855L34.7369 31.6369C33.0788 31.834 31.245 31.9788 29.2141 32.0509V19.0715C31.2449 19.1435 33.0788 19.2884 34.7369 19.4855ZM46.2984 28.466C46.2655 28.4836 46.2346 28.5011 46.2011 28.5186C44.9162 29.1926 43.1404 29.9197 40.7378 30.5419L40.7378 20.5805C43.1404 21.2027 44.9161 21.9298 46.2009 22.6037C46.3218 22.6672 46.4383 22.7306 46.5527 22.7939L50.1633 17.9496C47.5989 16.4041 44.4489 15.2187 40.7378 14.3976V5.36706H43.4913V0.101369H31.9811V5.36706H34.7369V13.4388C32.9876 13.2526 31.1467 13.1275 29.2141 13.0649V11.8896L31.9811 11.8896L31.9811 6.62393L20.4708 6.62393L20.4708 11.8896H23.2321V13.0959C21.299 13.1958 19.4535 13.3911 17.7162 13.6844V5.36706H20.4708V0.101369H8.96041L8.96041 5.36706H11.7152V15.2309C10.7127 15.5957 9.76756 16.0021 8.89073 16.4533C4.4616 18.7329 1.92139 22.0525 1.92139 25.561C1.92139 29.0697 4.4616 32.3895 8.89073 34.6688C9.76756 35.1201 10.7127 35.5265 11.7152 35.8914V39.7701C11.7152 46.8297 17.2408 51.7603 25.1522 51.7603H27.301C35.2125 51.7603 40.7378 46.8297 40.7378 39.7701V36.7242C44.3303 35.9291 47.397 34.7929 49.9155 33.319L46.2984 28.466Z" fill="white"/>
<path id="path16" d="M23.2319 33.0989C12.0737 32.4729 6.84209 28.3929 6.84209 25.5612C6.84209 22.7296 12.0737 18.65 23.2319 18.024V14.1779C17.7147 14.4682 12.9682 15.5702 9.38488 17.4145C5.32815 19.5022 3.00146 22.4715 3.00146 25.5612C3.00146 28.651 5.32815 31.6206 9.38488 33.7083C12.9682 35.5525 17.7147 36.6548 23.2319 36.9451L23.2319 33.0989ZM29.214 33.1325L29.214 36.9741C37.3069 36.709 43.7509 35.3486 48.4162 32.9135L46.0808 29.7799C42.783 31.377 37.5242 32.8459 29.214 33.1325ZM48.6731 18.3432C43.9886 15.8235 37.4555 14.419 29.214 14.1492V17.9904C37.7474 18.2846 43.0623 19.8257 46.3414 21.4718L48.6731 18.3432ZM35.817 37.5595V39.7703C35.817 44.9874 31.2295 46.8386 27.3009 46.8386H25.1521C18.8663 46.8386 16.6358 43.0308 16.6358 39.7703V37.2406C15.2821 36.9741 14.0013 36.6449 12.7953 36.2592V39.7703C12.7953 46.1937 17.8766 50.6802 25.1521 50.6802H27.3009C34.5763 50.6802 39.6576 46.1937 39.6576 39.7703V36.9495C38.4345 37.1904 37.1543 37.3938 35.817 37.5595ZM12.7953 14.8634C14.0013 14.4777 15.2821 14.1486 16.6358 13.8822V4.4099H19.3939V1.05894H10.0372L10.0372 4.4099H12.7953L12.7953 14.8634ZM39.6576 20.3181C38.5092 20.0568 37.2333 19.8208 35.817 19.6238L35.817 31.4989C37.2333 31.302 38.5092 31.0659 39.6576 30.8048L39.6576 20.3181ZM35.817 13.5635C37.1541 13.7291 38.4345 13.9324 39.6576 14.1731V4.4099H42.4144V1.05894H33.0577V4.4099H35.817V13.5635ZM16.6358 20.0153C15.0837 20.3832 13.8164 20.8164 12.7953 21.25L12.7953 29.8727C13.8164 30.3064 15.0836 30.7396 16.6358 31.1075L16.6358 20.0153ZM28.1373 10.9325L28.1373 40.2025H30.9013V43.5535H21.5446V40.2025H24.3086L24.3086 10.9325H21.5474V7.5815H30.9041V10.9325H28.1373Z" fill="black"/>
<path id="path18" d="M43.9161 38.9764H44.0742C44.1629 38.9764 44.2283 38.963 44.2709 38.9362C44.3134 38.9094 44.3347 38.8656 44.3347 38.8046C44.3347 38.7399 44.3124 38.6937 44.2681 38.666C44.2237 38.6383 44.1553 38.6244 44.0631 38.6244H43.9161V38.9764ZM44.1074 38.472C44.2663 38.472 44.3849 38.4979 44.4635 38.5495C44.542 38.6013 44.5812 38.6771 44.5812 38.7768C44.5812 38.86 44.5599 38.9279 44.5176 38.9806C44.475 39.0332 44.4131 39.0689 44.3318 39.0872L44.5812 39.5945H44.3124L44.0908 39.1261H43.9161V39.5945H43.6751V38.472H44.1074ZM44.0853 38.1975C43.8505 38.1975 43.652 38.2788 43.4895 38.4415C43.4063 38.5265 43.3426 38.6212 43.2983 38.7256C43.2538 38.83 43.2317 38.9386 43.2317 39.0512C43.2317 39.164 43.2525 39.2712 43.2941 39.3728C43.3356 39.4744 43.397 39.5668 43.4784 39.65C43.5614 39.7332 43.6538 39.7965 43.7554 39.8398C43.857 39.8833 43.9624 39.905 44.0714 39.905C44.3115 39.905 44.5176 39.8219 44.6894 39.6555C44.7706 39.5779 44.8325 39.4883 44.875 39.3867C44.9175 39.2851 44.9387 39.1778 44.9387 39.0651C44.9387 38.823 44.8574 38.6189 44.6949 38.4526C44.5249 38.2825 44.3217 38.1975 44.0853 38.1975ZM44.0825 38.0506C44.221 38.0506 44.3507 38.0755 44.4718 38.1255C44.5928 38.1754 44.7023 38.2501 44.8001 38.35C44.8944 38.4442 44.9655 38.5509 45.0135 38.6701C45.0616 38.7893 45.0856 38.9164 45.0856 39.0512C45.0856 39.1899 45.0607 39.3192 45.0108 39.4393C44.9609 39.5595 44.8879 39.6666 44.7918 39.7608C44.6921 39.8569 44.5817 39.9299 44.4607 39.9798C44.3397 40.0297 44.2135 40.0547 44.0825 40.0547C43.9494 40.0547 43.822 40.0288 43.7001 39.977C43.5781 39.9254 43.469 39.8504 43.3731 39.7525C43.2788 39.6564 43.2067 39.5488 43.1569 39.4296C43.107 39.3104 43.082 39.1843 43.082 39.0512C43.082 38.9182 43.1079 38.7903 43.1596 38.6673C43.2113 38.5445 43.2862 38.434 43.3842 38.3361C43.5744 38.1458 43.8071 38.0506 44.0825 38.0506Z" fill="black"/>
</g>
</g>
</g>
</g>
</g>
</g>
</svg>
